<?xml version="1.0" standalone="no"?>
<!DOCTYPE svg PUBLIC "-//W3C//DTD SVG 20010904//EN"
 "http://www.w3.org/TR/2001/REC-SVG-20010904/DTD/svg10.dtd">
<svg version="1.0" xmlns="http://www.w3.org/2000/svg"
 width="1024.000000pt" height="1024.000000pt" viewBox="0 0 1024.000000 1024.000000"
 preserveAspectRatio="xMidYMid meet">

<g transform="translate(0.000000,1024.000000) scale(0.100000,-0.100000)"
fill="#000000" stroke="none">
<path d="M2065 8073 c-44 -23 -65 -44 -86 -85 -38 -74 -18 -175 45 -223 141
-108 326 7 285 177 -27 115 -150 181 -244 131z m22 -64 c-15 -12 -39 -38 -52
-57 -18 -26 -25 -31 -25 -18 0 26 30 73 54 85 38 18 52 11 23 -10z m143 -149
c0 -24 -42 -70 -65 -70 -22 0 -19 8 18 50 37 44 47 48 47 20z"/>
<path d="M8047 8075 c-77 -27 -120 -89 -119 -171 1 -81 39 -137 114 -169 51
-21 94 -19 145 6 141 68 134 264 -12 330 -47 22 -77 23 -128 4z m-4 -87 c-22
-24 -45 -52 -51 -63 -11 -19 -11 -19 -11 5 0 34 21 70 50 86 48 26 53 14 12
-28z m162 -127 c-9 -36 -34 -61 -61 -61 -29 0 -23 22 12 40 13 8 27 24 30 37
4 12 11 20 16 17 5 -3 7 -18 3 -33z"/>
<path d="M4907 7031 c-6 -2 -22 -13 -34 -24 -20 -18 -23 -30 -23 -99 0 -98 -9
-118 -55 -118 -43 0 -55 20 -55 94 0 56 -7 70 -27 58 -23 -15 -33 -66 -33
-176 0 -105 -2 -114 -23 -134 -35 -33 -79 -29 -111 9 -14 17 -26 41 -26 53 0
13 -3 26 -7 29 -7 8 -73 -39 -87 -61 -7 -12 -10 -12 -18 -1 -8 11 -9 11 -5 -1
3 -9 -8 -31 -23 -50 l-29 -35 5 45 c4 33 3 41 -5 30 -8 -12 -11 -3 -12 35 -2
50 -2 50 -9 -15 -4 -36 -8 -119 -9 -185 -1 -92 -5 -128 -19 -155 -20 -41 -71
-70 -123 -70 l-36 0 -7 -92 c-14 -198 3 -354 47 -446 18 -38 28 -48 54 -53 83
-16 119 -71 109 -165 l-6 -62 62 -52 c35 -29 97 -75 138 -103 47 -32 69 -52
60 -55 -16 -6 -45 -32 -35 -32 3 0 0 -6 -7 -14 -9 -9 -15 -10 -20 -3 -3 6 -25
11 -47 11 -41 1 -41 1 -39 -31 1 -20 7 -33 15 -33 25 0 98 43 145 85 69 62
112 80 188 80 70 0 96 -10 198 -74 40 -25 81 -42 112 -46 72 -10 180 12 261
52 86 43 189 138 188 173 0 14 -30 86 -67 160 -58 116 -72 138 -104 155 l-36
19 -85 -28 c-75 -25 -97 -28 -174 -24 -111 5 -182 36 -256 110 -135 136 -155
330 -52 513 90 162 283 228 480 164 84 -27 118 -28 144 -5 27 24 171 310 171
338 0 79 -126 158 -330 208 -68 17 -308 32 -343 21z"/>
<path d="M5801 6992 c-71 -36 -71 -38 -76 -528 -3 -242 -7 -555 -10 -697 l-4
-259 42 9 c130 25 217 0 319 -93 38 -35 77 -64 86 -64 16 0 182 165 239 238
32 41 22 52 -50 52 l-48 0 3 108 3 107 236 5 c230 5 236 6 271 30 61 41 73 71
73 185 0 86 -4 106 -24 141 -41 72 -48 74 -320 74 l-241 0 0 95 0 95 318 0
c310 0 319 1 362 23 73 36 82 64 78 242 -4 168 -12 195 -67 232 l-34 23 -561
0 c-514 0 -564 -1 -595 -18z"/>
<path d="M3454 6946 c-18 -14 -19 -32 -24 -334 l-5 -320 -24 -26 c-13 -14 -39
-28 -57 -32 l-32 -6 -7 -211 c-3 -117 -5 -277 -3 -357 l3 -145 61 -6 c86 -8
156 -49 213 -124 77 -101 152 -172 195 -183 63 -18 106 -3 139 48 14 23 15 88
10 693 l-6 668 -29 -36 c-25 -29 -36 -35 -70 -35 -32 0 -47 7 -74 34 l-34 34
0 147 c0 152 -7 185 -40 185 -29 0 -40 -31 -40 -118 0 -87 -14 -112 -62 -112
-40 0 -49 21 -50 117 0 57 -6 96 -15 111 -16 26 -22 27 -49 8z"/>
<path d="M7867 6200 c-4 -16 -11 -20 -25 -16 -25 8 -52 -2 -52 -21 0 -10 -6
-12 -20 -8 -15 5 -18 3 -14 -9 3 -9 1 -16 -5 -16 -6 0 -11 5 -11 11 0 5 -4 8
-9 5 -4 -3 -7 -18 -4 -33 3 -27 3 -27 -7 -5 -5 13 -8 36 -5 50 6 26 5 26 -8
-3 -8 -16 -10 -31 -5 -33 16 -7 8 -22 -12 -22 -11 0 -20 -5 -20 -11 0 -5 -4
-8 -9 -5 -5 3 -14 -1 -21 -9 -15 -18 -37 -19 -43 -2 -3 6 -6 2 -6 -9 -1 -30
-29 -53 -42 -33 -5 8 -7 20 -4 27 3 7 0 10 -6 6 -6 -3 -8 -17 -5 -30 4 -14 2
-24 -4 -24 -5 0 -10 5 -10 12 0 6 -11 1 -24 -11 -13 -12 -29 -21 -37 -19 -7 2
-13 -4 -14 -12 0 -9 -10 -16 -24 -16 -14 -1 -30 -9 -36 -18 -15 -20 -31 -21
-42 -1 -8 13 -11 13 -28 -1 -13 -10 -15 -14 -5 -11 14 3 40 -14 40 -27 0 -4
-12 -3 -27 0 -21 6 -25 4 -20 -9 3 -9 -1 -18 -11 -23 -31 -13 -42 -12 -52 4
-6 11 -9 12 -10 4 0 -7 -4 -11 -9 -8 -5 3 -12 -1 -15 -9 -3 -8 -9 -15 -13 -14
-4 1 -16 1 -26 0 -16 -1 -17 -3 -3 -16 17 -18 30 -20 20 -3 -4 7 -3 8 5 4 6
-4 9 -11 6 -16 -3 -4 17 -22 44 -38 l48 -30 114 30 c67 17 141 44 179 65 77
43 218 180 251 243 28 54 52 120 46 126 -2 3 -7 -5 -10 -16z m-627 -360 c0 -5
-4 -10 -10 -10 -5 0 -10 5 -10 10 0 6 5 10 10 10 6 0 10 -4 10 -10z"/>
<path d="M7560 6050 c0 -5 5 -10 10 -10 6 0 10 5 10 10 0 6 -4 10 -10 10 -5 0
-10 -4 -10 -10z"/>
<path d="M7256 5888 c3 -4 9 -8 15 -8 5 0 9 4 9 8 0 5 -7 9 -15 9 -8 0 -12 -4
-9 -9z"/>
<path d="M4324 5196 c0 -17 5 -23 21 -21 28 2 50 -15 33 -27 -17 -10 7 -28 39
-28 19 0 21 5 21 45 0 25 -4 43 -9 39 -5 -3 -9 -12 -9 -20 0 -16 -26 -19 -35
-4 -3 6 1 7 9 4 9 -4 16 -1 16 6 0 9 -11 11 -36 7 -33 -6 -35 -5 -18 8 18 14
18 14 -6 15 -21 0 -26 -5 -26 -24z"/>
<path d="M5143 4960 c-143 -30 -273 -139 -304 -254 -6 -23 -11 -72 -11 -111 1
-94 48 -191 130 -266 67 -63 125 -94 275 -148 154 -56 177 -83 118 -142 -25
-24 -37 -29 -80 -29 -59 0 -125 23 -195 68 -62 39 -80 40 -139 3 -80 -51 -111
-156 -68 -227 25 -41 93 -94 158 -123 38 -18 50 -28 45 -39 -4 -11 -7 -12 -10
-4 -5 16 -32 16 -32 0 0 -7 -7 -2 -16 10 -11 15 -22 21 -33 17 -25 -10 -71
-15 -71 -7 0 4 -11 8 -24 8 -19 1 -23 -2 -18 -15 5 -14 4 -14 -12 2 -23 22
-38 13 -30 -19 5 -18 2 -24 -10 -24 -20 0 -21 38 -1 64 24 31 18 72 -25 180
-21 56 -91 247 -155 426 -202 567 -199 560 -248 590 -27 17 -51 20 -159 20
-70 0 -139 -5 -155 -11 -63 -24 -81 -57 -178 -337 -41 -117 -42 -124 -28 -153
9 -19 13 -45 10 -68 -4 -35 -3 -38 27 -47 61 -18 68 -100 12 -126 -32 -14 -73
10 -82 47 -7 29 -5 28 -37 16 -25 -10 -25 -9 -109 -236 -17 -44 -41 -105 -54
-136 -40 -95 -25 -174 39 -200 16 -7 34 -18 41 -24 15 -16 32 -2 101 79 61 72
150 139 225 168 42 17 77 22 150 22 89 1 99 -1 157 -33 40 -21 91 -64 146
-121 95 -99 126 -114 221 -108 l63 4 10 -38 c10 -35 9 -38 -8 -33 -11 4 -19 2
-19 -3 0 -26 114 -29 224 -6 86 17 192 58 189 72 -1 5 12 9 28 10 21 0 51 18
100 59 175 145 228 173 341 177 l62 2 19 59 c56 181 -35 356 -234 452 -46 22
-121 53 -167 68 -93 30 -111 49 -92 95 24 57 98 65 183 20 68 -36 103 -38 147
-7 58 39 74 70 78 150 3 62 1 77 -20 106 -47 70 -136 100 -313 106 -66 2 -139
0 -162 -5z m-899 -652 c16 -46 31 -89 34 -95 3 -10 -13 -13 -62 -13 -46 0 -66
4 -66 13 0 19 53 177 59 177 4 0 19 -37 35 -82z m656 -618 c0 -5 -2 -10 -4
-10 -3 0 -8 5 -11 10 -3 6 -1 10 4 10 6 0 11 -4 11 -10z"/>
<path d="M3166 4947 c-14 -10 -21 -34 -27 -98 -4 -46 -8 -85 -8 -86 -4 -11
-36 -33 -49 -33 -39 1 -47 17 -52 107 -4 69 -8 88 -20 88 -9 0 -16 -11 -18
-25 -6 -52 -13 -69 -32 -75 -27 -9 -60 12 -60 38 -1 70 -39 89 -85 42 -24 -23
-25 -31 -25 -133 0 -100 2 -110 23 -130 34 -32 71 -42 161 -42 62 0 87 -4 96
-15 10 -12 11 -86 5 -338 l-7 -322 30 -17 c16 -10 60 -45 97 -79 110 -100 192
-124 240 -73 l25 27 0 396 c0 296 3 400 12 409 8 8 48 12 116 12 l104 0 34 34
c33 33 34 36 34 115 0 93 -15 137 -56 170 -27 21 -34 22 -208 18 -100 -3 -197
-8 -216 -12 -29 -5 -39 -3 -54 14 -22 24 -35 26 -60 8z"/>
<path d="M6099 4941 c-346 -7 -339 -5 -366 -68 -7 -18 -13 -68 -13 -115 0
-130 23 -150 175 -158 l100 -5 3 -397 c1 -219 4 -398 6 -398 2 0 30 12 62 27
52 24 72 27 159 28 55 0 115 -4 133 -8 l32 -9 0 369 c0 274 3 372 12 381 7 7
43 12 90 12 84 0 129 15 148 49 14 28 12 201 -3 230 -6 13 -24 33 -38 43 -33
25 -84 27 -500 19z"/>
<path d="M6788 4915 c-31 -31 -38 -63 -38 -172 0 -82 1 -85 21 -80 52 14 102
-48 83 -101 -12 -35 -56 -57 -84 -42 -20 11 -20 8 -21 -287 -1 -248 -12 -527
-17 -460 -1 10 -6 15 -12 12 -5 -3 -10 0 -10 7 0 7 -7 3 -15 -10 -13 -18 -23
-21 -65 -17 -35 3 -50 0 -54 -10 -3 -8 -1 -17 4 -20 6 -4 10 -1 10 4 0 6 5 11
11 11 6 0 9 -6 6 -14 -6 -14 -5 -14 91 -91 34 -27 65 -60 68 -73 7 -24 -10
-52 -32 -52 -8 0 -14 -6 -14 -12 0 -9 -3 -8 -10 2 -8 12 -12 12 -36 0 -15 -8
-29 -23 -32 -32 -5 -22 -18 -23 -26 -2 -6 16 -26 10 -26 -8 0 -6 3 -9 6 -6 3
3 17 -5 32 -19 25 -23 26 -26 9 -38 -16 -11 -16 -13 -1 -19 30 -12 189 -6 253
9 68 16 131 47 269 132 78 49 149 73 210 73 77 0 167 -54 142 -85 -7 -8 -24
-15 -39 -15 -51 0 -100 -21 -130 -56 -17 -19 -31 -41 -31 -49 0 -21 31 -34 55
-25 12 5 65 13 119 20 199 24 323 96 391 230 53 103 61 275 13 288 -15 4 -16
7 -6 20 11 13 10 15 -5 9 -10 -4 -21 -7 -23 -7 -2 0 -4 -13 -4 -29 0 -25 -4
-29 -24 -27 -14 2 -36 -8 -56 -25 -18 -16 -36 -26 -41 -23 -5 3 -9 0 -9 -5 0
-6 -8 -11 -18 -11 -11 0 -29 -9 -41 -19 -19 -16 -27 -18 -47 -9 -21 10 -24 18
-24 62 0 59 -23 111 -62 139 -23 18 -45 20 -210 21 l-183 1 -3 67 -3 67 150 3
c192 4 194 6 199 138 4 78 1 94 -17 124 -30 47 -67 57 -208 55 l-118 -2 -3 51
c-5 93 -8 92 199 92 105 0 188 4 200 10 35 19 49 63 49 160 0 101 -14 139 -57
159 -16 7 -142 11 -367 11 l-343 0 -25 -25z m705 -1252 c-7 -2 -19 -2 -25 0
-7 3 -2 5 12 5 14 0 19 -2 13 -5z"/>
<path d="M7660 3826 c0 -9 5 -16 10 -16 6 0 10 4 10 9 0 6 -4 13 -10 16 -5 3
-10 -1 -10 -9z"/>
<path d="M7616 3804 c-3 -9 -1 -12 4 -9 6 3 10 1 10 -5 0 -6 5 -8 10 -5 14 9
12 22 -4 28 -8 3 -17 -1 -20 -9z"/>
<path d="M3611 3684 c-7 -9 -22 -13 -32 -11 -11 3 -19 1 -19 -4 0 -9 16 -13
35 -9 34 7 65 8 65 2 0 -4 -7 -15 -14 -25 -12 -16 -16 -16 -28 -4 -11 13 -15
13 -30 0 -17 -15 -18 -14 -18 3 -1 16 -3 15 -15 -6 l-14 -25 -9 25 -9 25 -7
-23 c-6 -17 -11 -20 -20 -13 -7 6 -17 6 -26 1 -8 -5 -18 -6 -22 -4 -5 3 -11
-2 -14 -11 -5 -11 -10 -13 -19 -5 -9 8 -14 6 -19 -5 -3 -9 -14 -14 -28 -11
-13 2 -32 -1 -43 -7 -11 -6 -38 -12 -59 -14 -46 -4 -56 -10 -36 -23 17 -11
-34 -7 -63 5 -12 5 -16 3 -12 -6 3 -8 -8 -21 -26 -32 -22 -12 -30 -13 -26 -4
3 7 -3 13 -13 13 -15 0 -17 -4 -8 -21 10 -18 10 -19 -5 -6 -13 10 -17 10 -17
1 0 -8 -8 -10 -25 -6 -20 5 -31 0 -50 -20 -14 -15 -25 -22 -25 -15 0 22 -18
10 -31 -21 -11 -27 -14 -29 -20 -12 -6 17 -8 17 -17 -6 -8 -19 -11 -21 -11 -7
-1 11 -6 17 -13 14 -7 -2 -12 -10 -10 -17 2 -8 -3 -10 -14 -6 -9 3 -22 2 -29
-4 -9 -7 -15 -8 -19 -1 -4 6 -14 7 -22 4 -11 -4 -14 -13 -9 -31 5 -22 4 -24
-9 -13 -12 10 -15 8 -18 -10 -3 -21 -12 -25 -68 -31 -8 0 -18 -6 -22 -12 -5
-7 -8 -4 -8 7 0 9 -4 17 -10 17 -19 0 -10 -32 10 -37 11 -3 17 -9 14 -15 -3
-5 0 -16 7 -24 10 -13 25 -14 68 -9 75 9 168 49 274 119 146 95 207 117 404
141 78 10 133 22 171 40 71 32 124 73 116 87 -4 6 -2 8 4 4 16 -10 25 13 12
29 -7 8 -19 15 -27 15 -8 0 -21 7 -29 15 -19 19 -25 18 -43 -1z m-454 -196
c-3 -8 -6 -5 -6 6 -1 11 2 17 5 13 3 -3 4 -12 1 -19z"/>
<path d="M3285 3590 c-3 -5 -2 -10 4 -10 5 0 13 5 16 10 3 6 2 10 -4 10 -5 0
-13 -4 -16 -10z"/>
<path d="M6580 3415 c0 -13 4 -14 20 -5 11 6 20 13 20 15 0 3 -9 5 -20 5 -11
0 -20 -7 -20 -15z"/>
<path d="M2716 3361 c-4 -6 -14 -7 -23 -4 -15 6 -16 5 -3 -9 12 -13 16 -13 28
-1 8 8 12 16 9 19 -3 3 -8 1 -11 -5z"/>
<path d="M2059 2507 c-74 -39 -119 -128 -99 -197 26 -91 93 -143 185 -143 79
0 129 33 160 106 20 48 19 83 -4 133 -23 50 -53 81 -106 105 -53 25 -83 24
-136 -4z m36 -59 c-11 -6 -30 -20 -42 -31 -13 -11 -25 -18 -28 -15 -9 9 54 58
73 58 14 -1 13 -3 -3 -12z m118 -176 c-23 -31 -50 -49 -59 -39 -4 3 11 24 32
45 42 40 59 37 27 -6z"/>
<path d="M8030 2508 c-26 -14 -57 -41 -75 -66 -25 -36 -30 -53 -29 -100 0 -70
22 -114 74 -148 79 -53 177 -38 244 36 81 90 51 219 -64 278 -24 12 -58 22
-75 22 -17 0 -51 -10 -75 -22z m8 -86 c-43 -41 -59 -42 -38 -2 10 19 70 53 78
45 2 -2 -16 -21 -40 -43z m136 -163 c-17 -19 -44 -26 -44 -12 0 4 12 17 28 29
31 25 43 13 16 -17z"/>
<path d="M6140 2031 c0 -5 -12 -7 -27 -5 -16 2 -20 1 -10 -2 22 -7 16 -30 -7
-26 -9 2 -16 -4 -16 -13 0 -21 37 -19 49 3 10 16 10 16 11 0 0 -10 7 -18 15
-18 18 0 20 27 3 33 -7 2 -9 8 -5 13 4 5 12 2 17 -5 4 -8 15 -11 24 -8 10 4
16 1 16 -8 0 -7 -8 -16 -17 -18 -10 -3 20 -5 67 -5 47 0 78 2 70 4 -9 3 -22
19 -29 36 l-14 31 -14 -27 c-17 -32 -23 -33 -16 -3 3 12 2 19 -2 15 -5 -4 -14
-3 -21 3 -9 7 -19 7 -32 0 -11 -6 -22 -7 -26 -4 -10 10 -36 12 -36 4z m92 -43
c-6 -6 -9 0 -9 18 0 23 1 24 9 10 7 -12 7 -21 0 -28z"/>
<path d="M6320 2021 c0 -11 5 -23 10 -26 6 -3 10 3 10 14 0 11 -4 23 -10 26
-5 3 -10 -3 -10 -14z"/>
<path d="M6550 2029 c0 -5 5 -9 11 -9 5 0 7 -5 3 -11 -4 -7 -9 -7 -13 -2 -8
13 -43 13 -58 1 -7 -5 -16 -7 -21 -4 -6 3 -15 -1 -22 -9 -7 -8 -17 -15 -22
-15 -6 0 -5 6 2 15 18 22 4 34 -39 32 -35 -1 -38 -3 -29 -20 6 -12 17 -17 29
-14 12 3 19 0 19 -9 0 -18 76 -19 83 -1 4 10 6 10 6 0 1 -9 22 -13 74 -13 54
1 68 3 54 11 -9 5 -21 8 -26 5 -5 -4 -7 3 -4 14 6 24 10 25 29 5 18 -18 50
-20 60 -4 3 6 0 15 -7 20 -9 5 -16 3 -21 -9 -6 -16 -7 -16 -7 1 -1 9 -4 17 -8
18 -41 6 -93 4 -93 -2z"/>
<path d="M6695 2027 c6 -15 38 -17 43 -2 1 6 -9 11 -23 13 -18 2 -23 -1 -20
-11z"/>
<path d="M6778 2024 c-9 -9 -29 -18 -45 -20 -16 -2 -42 -10 -59 -19 -28 -14
-27 -15 57 -15 l85 0 0 35 c-1 38 -13 44 -38 19z m-18 -34 c0 -5 -5 -10 -11
-10 -5 0 -7 5 -4 10 3 6 8 10 11 10 2 0 4 -4 4 -10z m25 0 c3 -5 1 -10 -4 -10
-6 0 -11 5 -11 10 0 6 2 10 4 10 3 0 8 -4 11 -10z"/>
<path d="M6830 2032 c0 -4 5 -13 12 -20 9 -9 9 -12 0 -12 -7 0 -12 -7 -12 -15
0 -10 10 -15 28 -15 19 0 23 3 13 9 -8 5 -9 11 -3 15 5 3 12 0 15 -8 5 -12
114 -20 262 -18 6 0 101 1 213 2 127 0 200 4 197 10 -4 6 -2 10 4 10 5 0 13
-5 16 -10 9 -14 166 -11 184 4 12 8 13 8 7 -1 -5 -10 4 -13 34 -13 23 0 39 4
35 9 -3 5 -1 12 5 16 5 3 10 -1 10 -9 0 -13 13 -16 63 -16 36 0 68 5 75 12 8
8 12 8 12 1 0 -6 24 -11 60 -11 33 0 60 5 60 10 0 5 5 6 10 3 6 -3 10 4 10 16
0 21 -1 22 -20 4 -21 -19 -28 -7 -8 13 9 9 0 12 -40 12 -35 0 -52 -4 -52 -12
-1 -9 -5 -8 -13 3 -9 11 -20 14 -39 8 -16 -4 -28 -3 -28 2 0 12 -154 2 -158
-11 -2 -6 -9 -5 -16 3 -8 7 -29 12 -47 11 -19 -1 -46 -2 -60 -3 -18 -1 -28 -8
-32 -21 -7 -27 -35 -25 -42 3 -6 21 -9 22 -101 17 -53 -3 -98 -2 -101 3 -2 4
-9 5 -14 1 -6 -3 -39 -6 -74 -5 -45 0 -65 -4 -65 -12 0 -8 -3 -9 -8 -1 -11 17
-72 26 -72 11 0 -9 -2 -9 -8 -1 -12 19 -62 14 -75 -7 -7 -11 -16 -19 -21 -19
-4 0 -3 7 4 15 10 12 10 15 -1 16 -25 2 -44 -3 -51 -14 -5 -8 -9 -5 -14 6 -4
13 -16 17 -41 15 -19 -1 -37 -6 -39 -10 -3 -5 -11 -5 -17 -1 -18 11 -57 15
-57 5z m270 -42 c0 -5 -5 -10 -11 -10 -5 0 -7 5 -4 10 3 6 8 10 11 10 2 0 4
-4 4 -10z"/>
<path d="M5878 2025 c-8 -9 3 -45 13 -45 5 0 9 6 10 13 0 6 4 3 9 -8 5 -13 9
-14 9 -5 0 22 -17 59 -18 40 -1 -11 -3 -12 -9 -2 -5 7 -11 10 -14 7z"/>
<path d="M5940 2019 c0 -14 20 -33 43 -42 14 -5 18 -3 15 11 -1 9 1 23 5 30 5
6 4 12 -2 12 -5 0 -13 -10 -17 -22 l-7 -23 -10 23 c-10 23 -27 30 -27 11z"/>
<path d="M6034 2002 c-10 -25 -9 -28 13 -30 24 -2 33 21 13 33 -6 4 -8 11 -5
16 4 5 2 9 -2 9 -5 0 -13 -13 -19 -28z m26 -12 c0 -5 -5 -10 -11 -10 -5 0 -7
5 -4 10 3 6 8 10 11 10 2 0 4 -4 4 -10z"/>
<path d="M7590 2020 c0 -5 5 -10 10 -10 6 0 10 5 10 10 0 6 -4 10 -10 10 -5 0
-10 -4 -10 -10z"/>
<path d="M5689 2008 c-7 -24 -5 -38 6 -38 8 0 11 7 8 20 -5 17 -11 26 -14 18z"/>
<path d="M8160 2003 c0 -4 5 -15 10 -23 8 -13 10 -13 10 2 0 9 -4 20 -10 23
-5 3 -10 3 -10 -2z"/>
<path d="M5784 1984 c-18 -15 -18 -15 2 -5 12 6 24 7 28 4 3 -3 6 -1 6 5 0 16
-12 15 -36 -4z"/>
<path d="M6350 1980 c0 -5 7 -10 16 -10 8 0 12 5 9 10 -3 6 -10 10 -16 10 -5
0 -9 -4 -9 -10z"/>
</g>
</svg>
